<svg width="56" height="62" viewBox="0 0 56 62" fill="none" xmlns="http://www.w3.org/2000/svg">
<path d="M53.1457 0.550453C52.1113 1.42666 51.9461 1.5693 51.8053 1.69836C51.738 1.75949 51.3401 2.1059 50.9178 2.47268C50.4955 2.83947 50.1405 3.15871 50.1221 3.17909C50.1038 3.19946 49.8039 3.47116 49.4489 3.7904C49.0939 4.10284 48.6287 4.52397 48.4084 4.72774C47.931 5.16924 47.9493 5.14886 47.0313 5.99791C46.6273 6.37149 46.2845 6.69073 46.2662 6.71111C46.2478 6.73148 45.9479 7.02355 45.5929 7.35638C44.9747 7.94731 42.4225 10.4401 42.2266 10.6507C42.1715 10.705 41.994 10.8884 41.8288 11.0514C41.6574 11.2144 41.1678 11.7171 40.7271 12.1721C40.2925 12.6204 39.7172 13.225 39.4418 13.5034C38.187 14.794 34.8391 18.5841 33.5048 20.2211C33.3702 20.3841 33.2294 20.5539 33.1988 20.5946C32.5745 21.3282 30.6281 23.8618 29.4163 25.5191C28.082 27.3326 25.6827 30.8579 24.2322 33.1129C23.1243 34.8382 21.0311 38.2683 20.3823 39.4162C20.2354 39.6811 20.0518 40.0004 19.9784 40.1294C19.4214 41.0939 19.2745 41.3656 19.2745 41.4268C19.2745 41.5558 19.1643 41.4607 18.4666 40.7068C18.0871 40.2924 17.4689 39.6404 17.1017 39.2532C16.7283 38.866 16.1408 38.2411 15.7858 37.8608C15.4308 37.4872 14.782 36.7944 14.3474 36.3257C13.9068 35.857 13.1784 35.0759 12.7194 34.5937C12.2665 34.1046 11.2872 33.0722 10.5527 32.2843C9.18169 30.8307 8.33094 29.9273 7.12519 28.6436C6.19486 27.6451 6.04185 27.4957 5.98676 27.4957C5.96228 27.4957 5.71134 27.7742 5.42979 28.1206C5.14824 28.4602 4.62188 29.1122 4.24852 29.5605C3.88129 30.0156 3.47733 30.5047 3.35492 30.6541C3.23251 30.8035 2.79795 31.3401 2.38175 31.8428C1.96555 32.3454 1.47591 32.9431 1.29229 33.1673C1.10867 33.3914 0.851609 33.7039 0.723077 33.8601L0.484375 34.1454L1.20048 35.0487C1.97779 36.0336 3.99146 38.5536 4.81773 39.586C5.49712 40.4283 5.57668 40.5302 6.11529 41.2162C6.36624 41.5354 6.6845 41.9294 6.82528 42.0992C6.96605 42.269 7.43733 42.8531 7.86577 43.3965C10.0202 46.1135 10.4548 46.6569 10.8893 47.1935C11.1464 47.5127 11.4524 47.8931 11.5687 48.0425C11.8013 48.3346 12.6215 49.3602 13.2825 50.1821C13.5028 50.4606 13.919 50.9836 14.2006 51.3436C14.4821 51.7036 15.1676 52.5594 15.7185 53.2454C16.2693 53.9315 16.8079 54.6039 16.912 54.7329C17.016 54.862 17.2976 55.2152 17.5301 55.5141C17.7688 55.8129 17.9708 56.071 17.9892 56.0914C18.0075 56.1118 18.3381 56.5193 18.7237 57.0084C19.1092 57.4906 19.5622 58.0612 19.7335 58.265C19.8988 58.4755 20.1253 58.7472 20.2232 58.8763C20.3272 59.0053 20.7496 59.5419 21.1658 60.0649C21.582 60.5879 21.9308 61.0227 21.9369 61.0362C21.9492 61.0498 22.1267 60.6966 22.3348 60.2551C22.549 59.8136 22.7938 59.2974 22.8856 59.114C22.9774 58.9238 23.21 58.4348 23.4059 58.0272C23.6017 57.6129 23.8527 57.1035 23.9629 56.8861C24.0791 56.6688 24.171 56.4786 24.171 56.465C24.171 56.4514 24.324 56.1458 24.5076 55.7858C24.6912 55.419 24.8442 55.1065 24.8442 55.0862C24.8442 55.0658 24.9727 54.8077 25.1319 54.502C25.291 54.1964 25.4869 53.816 25.5664 53.6462C26.1295 52.4779 29.0674 46.7655 30.1936 44.6463C30.5914 43.8992 31.0566 43.0297 31.2218 42.7105C31.3871 42.3913 31.5891 42.0245 31.6625 41.8954C31.7421 41.7664 32.0665 41.1686 32.3909 40.5709C32.7091 39.9732 33.0825 39.2872 33.2233 39.0426C33.3579 38.7981 33.5171 38.506 33.5721 38.3974C33.6272 38.2819 33.7619 38.0374 33.872 37.854C34.0373 37.5687 34.8575 36.1219 36.0265 34.0503C37.2384 31.8903 39.7233 27.7742 41.027 25.7432C41.9695 24.2829 43.9465 21.3146 44.4361 20.6354C44.5341 20.5063 44.8217 20.092 45.091 19.7184C45.8989 18.5705 47.7596 15.9827 47.7963 15.9487C47.8208 15.9283 48.0901 15.5615 48.4084 15.1336C48.9531 14.3864 50.2323 12.6952 50.3058 12.6204C50.3241 12.6001 50.5567 12.2944 50.826 11.9412C51.0953 11.588 51.3401 11.262 51.3769 11.2212C51.4075 11.1805 51.5911 10.9495 51.7747 10.7118C51.9583 10.4741 52.2337 10.1277 52.3867 9.93747C52.5398 9.75407 52.7723 9.462 52.9009 9.29219C53.0355 9.12239 53.2681 8.83031 53.4211 8.64692C53.5741 8.45674 53.8128 8.17146 53.9414 8.00165C54.076 7.83184 54.4616 7.36317 54.7982 6.96242C55.1349 6.56167 55.4409 6.1813 55.4776 6.11338C55.5633 5.98433 55.5878 6.08621 54.5901 2.39797C54.2474 1.1278 53.9475 0.0546112 53.923 0.00706482C53.8985 -0.0404816 53.617 0.156494 53.1457 0.550453Z" fill="url(#paint0_linear_94_78)"/>
<defs>
<linearGradient id="paint0_linear_94_78" x1="27.9999" y1="8.7738e-05" x2="27.9999" y2="61.0366" gradientUnits="userSpaceOnUse">
<stop stop-color="#B1DBDD"/>
<stop offset="1" stop-color="#196063"/>
</linearGradient>
</defs>
</svg>
