<svg width="114" height="105" viewBox="0 0 114 105" fill="none" xmlns="http://www.w3.org/2000/svg">
<g clip-path="url(#clip0_121_4)">
<circle cx="56.8965" cy="58.1236" r="40.3575" fill="url(#paint0_linear_121_4)"/>
<path d="M112.139 47.8691C112.139 78.3792 87.4059 103.113 56.8958 103.113C26.3857 103.113 1.65234 78.3792 1.65234 47.8691" stroke="url(#paint1_linear_121_4)" stroke-width="1.654"/>
<g filter="url(#filter0_d_121_4)">
<path d="M53.2184 1.23816C50.8295 1.97681 49.0851 2.91976 47.0734 4.61709C44.826 6.503 42.8773 9.6619 42.0443 12.7265C41.6514 14.1567 41.62 14.5496 41.62 17.2841C41.6043 20.6945 41.7614 21.7003 42.8144 24.8906C44.1345 28.8511 46.9634 33.723 50.2952 37.7149C51.1596 38.7521 51.8511 39.6165 51.8354 39.6322C51.8196 39.6479 49.6666 39.2707 41.3843 37.7777C38.4925 37.2591 35.9623 36.8033 35.758 36.7562L35.3965 36.6619V43.1054V49.549L41.9972 71.7084C45.6276 83.8883 48.5979 94.0879 48.5979 94.3551V94.8423H56.9273H65.2568V94.1351C65.2568 93.6636 67.3941 86.4657 71.9832 71.4727L78.6939 49.5018L78.6467 43.0897L78.6153 36.6776L78.0967 36.7876C77.3109 36.9605 62.1922 39.6479 62.1607 39.6322C62.145 39.6165 62.6636 38.9564 63.3237 38.1863C67.9285 32.6543 70.9931 26.8866 72.1246 21.606C72.5647 19.5629 72.5175 15.0996 72.0461 13.2294C70.7731 8.15317 67.8185 4.44421 63.2923 2.2597C61.0135 1.15958 60.2748 1.00242 57.1631 0.923836C54.6799 0.860977 54.3971 0.876694 53.2184 1.23816ZM58.8918 7.65026C61.1549 8.13745 63.5909 10.1334 64.7539 12.4593C65.6654 14.2981 65.9483 15.6811 65.8383 18.0385C65.7597 20.2544 65.4296 21.6374 64.4081 24.1677C63.1665 27.2009 60.1334 31.9 57.7288 34.4931L56.9273 35.3575L56.4401 34.8074C55.6543 33.9273 53.1869 30.6112 52.1654 29.0711C50.3423 26.3051 48.8808 22.8947 48.3621 20.1759C48.0635 18.5571 48.0635 16.0111 48.3778 14.691C49.1794 11.2178 52.0397 8.32605 55.4972 7.46167C56.1415 7.30451 57.7131 7.38309 58.8918 7.65026ZM69.2643 48.1031C73.4133 48.8417 76.8394 49.4861 76.8708 49.5175C76.9023 49.549 74.2149 58.4127 70.8988 69.2096C67.5827 80.0064 64.8482 88.8231 64.8167 88.7916C64.7696 88.7445 63.7323 77.3976 62.2079 60.1101C61.6421 53.7608 61.1392 48.1188 61.0763 47.5687C60.982 46.5944 60.9977 46.5786 61.3592 46.6729C61.5478 46.7201 65.1153 47.3644 69.2643 48.1031ZM52.8726 47.5687C52.8255 48.3545 51.5525 62.7503 49.8866 81.3737L49.1479 89.656L43.6788 71.3155C40.677 61.2102 37.9896 52.1735 37.691 51.2148L37.1724 49.4704L41.8243 48.6374C49.1479 47.3173 52.2597 46.7829 52.6054 46.7672C52.8883 46.7515 52.9198 46.8301 52.8726 47.5687Z" fill="#F0FFFF"/>
</g>
</g>
<defs>
<filter id="filter0_d_121_4" x="34.7349" y="0.895264" width="45.9433" height="97.9166" filterUnits="userSpaceOnUse" color-interpolation-filters="sRGB">
<feFlood flood-opacity="0" result="BackgroundImageFix"/>
<feColorMatrix in="SourceAlpha" type="matrix" values="0 0 0 0 0 0 0 0 0 0 0 0 0 0 0 0 0 0 127 0" result="hardAlpha"/>
<feOffset dx="0.661598" dy="2.64639"/>
<feGaussianBlur stdDeviation="0.661598"/>
<feComposite in2="hardAlpha" operator="out"/>
<feColorMatrix type="matrix" values="0 0 0 0 0 0 0 0 0 0 0 0 0 0 0 0 0 0 0.25 0"/>
<feBlend mode="normal" in2="BackgroundImageFix" result="effect1_dropShadow_121_4"/>
<feBlend mode="normal" in="SourceGraphic" in2="effect1_dropShadow_121_4" result="shape"/>
</filter>
<linearGradient id="paint0_linear_121_4" x1="56.8965" y1="17.7661" x2="56.8965" y2="98.4811" gradientUnits="userSpaceOnUse">
<stop stop-color="#CAF0F2"/>
<stop offset="1" stop-color="#004C50"/>
</linearGradient>
<linearGradient id="paint1_linear_121_4" x1="56.8958" y1="47.8691" x2="56.8958" y2="103.113" gradientUnits="userSpaceOnUse">
<stop stop-color="#A5C0C2"/>
<stop offset="1" stop-color="#0C5458"/>
</linearGradient>
<clipPath id="clip0_121_4">
<rect width="113.795" height="103.209" fill="white" transform="translate(0 0.895508)"/>
</clipPath>
</defs>
</svg>
