<svg width="855" height="607" viewBox="0 0 855 607" fill="none" xmlns="http://www.w3.org/2000/svg">
<path d="M1.00932 16.7489C1.61491 29.2645 3.02796 35.1185 7.46898 43.1931C15.1398 57.3236 30.8852 72.0597 51.0717 84.1716C68.2301 94.4666 72.4693 95.8797 132.827 113.442C175.824 125.756 189.752 131.206 212.563 143.923C223.06 149.777 232.75 155.43 234.163 156.439C236.181 157.65 235.979 160.274 233.759 167.743C229.52 181.874 229.923 202.262 234.768 213.163C239.411 223.054 239.815 225.275 236.585 222.045C235.172 220.632 231.942 220.43 227.097 221.641C209.333 225.678 185.917 222.852 177.641 215.787C174.814 213.365 168.153 212.355 149.38 211.952C135.855 211.548 117.485 210.337 108.603 209.327C99.721 208.116 88.0128 207.309 82.3606 207.309L72.2674 207.511L81.9569 216.393C104.566 237.185 126.569 241.02 179.256 233.955C216.197 228.908 243.246 227.495 244.256 230.725C244.66 231.936 243.045 233.551 240.42 233.955C237.796 234.56 217.408 238.8 195.001 243.442C149.178 252.728 137.47 256.564 120.311 267.666C110.218 274.126 95.4818 289.064 95.4818 292.697C95.4818 293.303 124.348 293.505 159.675 292.899C223.666 291.89 233.355 292.899 203.479 297.946C195.808 299.359 186.724 300.974 183.293 301.579C180.063 302.185 155.032 303.396 127.78 304.002C80.1401 305.213 78.3233 305.415 78.3233 309.25C78.3233 313.288 79.9383 313.288 218.215 313.893L358.107 314.297L356.694 302.791C356.089 296.331 355.079 290.477 354.676 289.871C354.272 289.266 347.61 288.055 339.536 287.449C299.97 284.219 258.386 246.47 250.917 207.511C248.293 193.784 248.293 184.094 251.119 174.405C254.349 162.697 256.166 165.523 255.358 181.066C253.743 208.52 265.25 234.964 287.858 255.756C302.595 269.483 331.865 281.999 349.023 281.999C354.474 281.999 355.483 281.191 356.694 275.741C358.309 267.666 357.502 266.657 349.023 265.244C325.203 261.408 295.327 237.387 283.014 212.355C276.352 198.83 276.15 197.417 276.15 175.01V151.796L254.955 139.482C243.246 132.821 216.6 117.075 195.607 104.56C174.814 92.2461 157.252 82.3548 156.647 82.9604C155.234 84.1716 163.308 98.9076 169.364 106.175C172.19 109.808 174.411 113.038 174.007 113.442C173.603 113.846 166.942 110.01 159.069 105.165C151.398 100.119 122.733 82.3548 95.4818 65.6C47.64 36.1278 24.2237 20.5843 7.87271 7.05938L0 0.599726L1.00932 16.7489ZM245.063 254.949C224.069 261.812 208.122 263.427 201.461 258.986C198.634 257.169 196.414 254.747 196.414 253.738C196.414 252.728 207.718 251.517 222.253 251.113C236.383 250.911 250.715 250.508 253.945 250.306C257.781 250.104 254.551 251.921 245.063 254.949ZM169.162 266.859C179.256 268.474 192.377 269.887 198.433 269.887C204.69 269.887 210.948 271.098 212.159 272.309C215.389 275.539 238.604 274.731 257.983 270.694C265.855 269.079 272.517 267.868 273.122 268.07C273.728 268.07 266.865 271.098 257.983 274.933C235.778 284.421 227.097 285.43 216.197 280.384C211.352 278.163 201.259 275.741 193.386 275.135C176.833 273.52 142.314 266.253 137.873 263.427C134.643 261.408 135.249 261.61 169.162 266.859ZM282.408 280.787C270.094 290.881 241.228 304.406 229.318 305.617C208.728 307.837 223.464 297.542 247.687 292.899C255.56 291.284 266.663 287.247 273.93 283.21C288.464 274.933 290.281 274.53 282.408 280.787ZM301.182 289.468C294.722 298.148 287.858 304.809 282.812 307.433C272.113 313.086 277.967 302.589 290.886 293.101C301.182 285.43 305.421 284.017 301.182 289.468ZM315.514 293.505C315.514 296.129 305.824 307.232 304.613 306.222C303.2 304.809 311.275 292.092 313.697 292.092C314.706 292.092 315.514 292.697 315.514 293.505ZM327.02 302.185C325.203 307.232 321.57 310.663 321.57 307.433C321.57 304.406 325.809 296.129 327.424 296.129C328.433 296.129 328.231 298.753 327.02 302.185ZM343.775 298.955C343.775 301.781 339.536 310.663 338.526 309.856C336.912 308.241 339.939 298.148 341.958 298.148C342.967 298.148 343.775 298.551 343.775 298.955Z" fill="url(#paint0_linear_181_168)"/>
<path d="M835.316 16.3451C825.828 24.6215 806.449 38.9539 792.521 48.2397C778.39 57.5254 750.331 76.0969 729.943 89.6218C709.554 103.147 693.001 113.644 693.001 113.038C693.001 112.433 695.222 109.203 698.048 105.973C704.104 98.9076 711.977 84.1715 710.564 82.7585C709.958 82.3547 683.312 97.4946 651.215 116.874L592.675 151.796L592.877 175.01C593.079 200.445 591.06 207.712 577.333 228.101C566.231 244.856 538.575 263.023 518.793 266.657C511.929 267.868 511.324 268.474 512.535 273.52C513.342 276.548 514.351 279.778 514.755 280.585C515.966 282.604 529.491 280.585 540.392 276.75C544.631 275.135 548.668 274.328 549.274 274.731C551.091 276.75 536.355 284.017 526.06 286.238C520.206 287.651 515.361 289.468 515.361 290.477C515.361 295.725 549.274 288.256 564.212 279.374C578.746 270.896 591.666 256.362 600.346 238.598C610.843 217.2 614.678 200.647 613.871 181.874C613.265 165.523 614.88 162.697 618.11 174.405C625.175 199.638 614.476 236.983 593.28 261.005C576.122 280.384 553.513 292.294 526.06 295.927C520.206 296.735 514.957 297.946 514.553 298.35C514.15 298.753 513.342 302.791 512.737 307.232L511.525 315.306L650.61 314.701L789.896 314.297V309.452V304.607L740.036 303.598C702.691 302.791 684.321 301.579 668.172 298.551C656.06 296.331 645.563 293.909 644.958 293.101C644.15 292.294 672.815 292.092 708.747 292.697C747.707 293.505 773.747 293.101 773.747 292.092C773.747 287.853 750.735 267.464 739.834 262.014C724.694 254.343 713.995 251.315 670.796 242.635C651.417 238.598 632.846 234.964 629.818 234.157C626.79 233.551 624.569 231.936 624.973 230.725C625.982 227.697 652.023 228.706 678.871 232.946C690.579 234.762 710.967 236.377 724.29 236.377C747.909 236.579 748.716 236.377 760.828 229.918C767.691 226.284 776.775 219.622 781.014 214.98L788.887 206.905L773.747 208.116C765.471 208.722 744.073 209.731 726.309 210.337L694.011 211.144L717.225 207.309C751.542 201.657 767.287 197.417 781.216 190.756C795.75 183.489 814.927 166.734 809.881 165.523C808.064 165.119 786.263 167.945 761.433 171.982C698.654 182.076 656.666 188.939 649.601 190.15C644.958 190.958 644.554 190.756 647.582 189.343C669.181 179.855 707.536 169.56 715.005 171.579C719.446 172.588 758.405 166.128 773.747 161.687C791.915 156.439 815.533 143.116 823.002 133.83C830.067 125.352 835.114 116.672 833.903 115.46C833.499 115.057 820.176 119.498 804.027 124.948C787.878 130.6 749.322 143.318 718.234 153.209C687.147 163.302 657.675 172.992 652.629 174.809L643.545 178.24L642.535 190.756C641.93 197.619 641.728 203.271 642.132 203.271C642.333 203.271 655.858 201.051 672.008 198.225C688.157 195.399 702.085 193.178 703.296 193.178C707.738 193.178 704.306 197.417 696.635 201.657C688.964 205.694 685.331 206.098 664.337 205.694L640.719 205.29L636.479 214.576C631.029 227.293 629.414 225.073 634.461 211.75C639.306 199.032 639.709 183.489 635.268 168.955C631.433 156.035 629.818 158.054 658.886 141.501C678.871 130.197 719.849 114.855 756.185 105.367C799.586 93.861 834.71 69.0317 847.831 40.367C852.474 30.2737 857.117 1.40714 853.887 1.40714C853.484 1.40714 845.005 8.06866 835.316 16.3451ZM690.983 213.365C690.983 219.824 663.933 225.275 645.765 222.65C633.653 220.834 635.672 217.402 649.197 217.2C655.051 217.2 664.74 215.787 670.796 214.374C684.927 211.144 690.983 210.942 690.983 213.365ZM651.215 251.719C664.135 251.719 674.834 252.526 674.834 253.334C674.834 254.141 672.008 256.564 668.576 258.582C660.501 263.427 645.361 262.014 625.377 254.747C613.669 250.508 612.659 249.902 619.321 250.71C623.762 251.315 638.094 251.719 651.215 251.719ZM727.318 265.042C715.206 269.079 677.862 275.943 668.98 275.943C665.144 275.943 657.877 277.961 652.83 280.384C643.948 284.623 643.545 284.623 631.029 281.393C617.1 277.759 597.52 269.887 598.933 268.474C599.336 268.07 603.777 268.675 608.42 269.887C613.265 271.3 625.579 273.117 635.47 273.924C649.802 275.135 654.243 274.933 656.868 272.713C658.684 271.098 664.539 269.887 670.998 269.887C682.706 269.887 723.281 264.436 724.896 262.821C725.502 262.216 728.328 261.812 731.154 262.014C735.191 262.216 734.384 262.821 727.318 265.042ZM622.954 293.505C631.029 295.322 641.122 298.551 645.563 300.974L653.638 305.213L643.545 305.819C634.663 306.424 630.827 305.213 610.843 295.12C598.327 288.862 588.032 282.806 588.032 281.797C588.032 280.787 592.675 282.2 598.125 285.027C603.777 287.853 614.88 291.688 622.954 293.505ZM581.774 296.129C592.271 304.405 594.492 308.241 589.041 308.241C585.61 308.241 572.69 297.138 569.662 291.89C566.432 285.834 570.672 287.247 581.774 296.129ZM560.78 299.359C566.029 306.222 566.432 310.865 561.386 306.626C557.349 303.396 551.293 292.092 553.311 292.092C554.321 292.092 557.752 295.322 560.78 299.359ZM531.51 305.819C531.51 307.232 530.703 307.837 529.491 307.232C528.482 306.626 527.473 304.002 527.473 301.579C527.473 297.946 527.876 297.744 529.491 300.166C530.501 301.781 531.51 304.405 531.51 305.819ZM544.631 302.387C546.65 308.443 544.631 309.048 542.007 303.194C540.796 300.368 540.594 298.148 541.603 298.148C542.612 298.148 544.026 299.964 544.631 302.387Z" fill="url(#paint1_linear_181_168)"/>
<path d="M8.67969 77.7117C8.67969 78.5191 11.3039 83.3639 14.5338 88.4105C28.6643 110.817 71.8632 129.187 154.022 147.759C181.072 154.016 190.963 157.246 206.709 165.119C217.407 170.569 226.693 175.01 227.299 175.01C230.327 175.01 229.721 166.33 226.289 161.889C219.426 153.209 206.91 147.557 157.05 131.004C75.4968 103.752 40.3724 91.0347 20.3878 80.9415C9.89087 75.693 8.67969 75.2893 8.67969 77.7117Z" fill="url(#paint2_linear_181_168)"/>
<path d="M829.259 84.7774C808.467 93.8613 766.883 109.607 721.262 125.756C662.721 146.548 652.023 151.191 644.957 158.054C637.085 165.927 637.085 172.185 644.755 171.579C647.38 171.579 655.051 168.147 661.712 164.11C669.585 159.467 681.293 155.026 695.02 151.796C706.728 148.768 723.483 144.731 732.365 142.511C782.629 130.197 820.377 113.846 836.123 98.1005C842.986 90.8334 849.042 80.942 848.033 78.3178C847.629 77.5103 839.353 80.3364 829.259 84.7774Z" fill="url(#paint3_linear_181_168)"/>
<path d="M24.8282 115.662C24.8282 116.469 26.645 120.103 29.0674 123.736C38.7568 139.684 63.1824 155.227 88.6173 161.687C107.391 166.532 137.872 171.376 148.773 171.175C161.087 171.175 180.667 175.212 199.441 181.672C207.314 184.498 216.599 187.324 220.233 188.131C226.693 189.544 226.894 189.342 226.289 183.892C225.683 177.634 223.665 176.827 186.32 165.926C161.49 158.659 89.8285 135.848 50.0613 122.525C23.0114 113.441 24.8282 114.047 24.8282 115.662Z" fill="url(#paint4_linear_181_168)"/>
<path d="M53.2922 170.367C72.0656 191.36 95.4819 200.041 154.023 208.115C165.731 209.73 183.495 212.354 193.386 213.969C203.479 215.786 216.399 217.401 222.051 218.007C232.548 218.814 232.75 218.814 231.337 213.566C230.731 210.739 229.722 207.51 229.318 206.702C228.712 205.895 217.408 205.491 203.883 205.693C182.485 206.298 178.246 205.693 171.383 202.261C166.942 200.041 163.106 197.013 162.501 195.6C161.693 192.774 163.712 192.975 202.268 199.435C214.784 201.454 225.483 203.27 225.886 203.27C226.29 203.27 226.694 201.05 226.694 198.224C226.694 191.764 222.455 189.947 199.038 187.121C189.349 185.91 174.007 183.488 165.125 181.873C146.352 178.239 56.1183 164.916 51.4755 164.916C49.0531 164.916 49.4568 166.127 53.2922 170.367Z" fill="url(#paint5_linear_181_168)"/>
<path d="M342.765 219.622C331.663 220.631 320.56 221.842 318.138 222.448C311.678 223.861 312.284 230.321 319.147 235.165C327.424 241.02 347.61 250.911 357.501 253.737C362.144 255.15 365.98 256.967 365.98 257.774C365.98 258.582 364.567 263.225 362.952 267.867C356.088 287.448 360.933 315.507 374.256 332.464C378.495 337.914 382.129 342.759 382.129 343.365C382.129 343.768 377.284 342.355 371.632 340.337C365.778 338.116 357.3 335.088 352.859 333.473C346.197 331.051 323.386 330.445 220.032 330.445C102.143 330.445 95.2798 330.647 95.8853 333.877C96.4909 337.309 103.758 337.511 212.361 337.914C275.948 338.116 328.433 338.52 328.837 338.924C329.24 339.327 330.25 351.237 330.855 365.368C332.47 395.244 330.855 394.033 357.098 386.16C365.778 383.536 381.12 380.306 390.809 378.893C406.151 376.47 408.977 376.672 410.592 379.095C413.822 384.343 412.61 390.399 407.968 392.014C403.325 393.629 403.325 393.629 408.371 394.235C411.197 394.638 425.328 395.244 439.862 395.446C460.452 395.849 466.104 395.446 465.499 393.427C464.893 392.216 463.077 391.005 461.462 391.005C459.443 391.005 458.837 389.188 459.241 384.343L459.847 377.884L473.372 378.489C481.446 378.691 496.99 381.921 511.524 386.16C525.049 389.995 536.353 392.822 536.757 392.418C537.161 392.014 538.574 379.7 539.987 365.166L542.207 338.52L579.754 338.318C600.344 338.116 652.223 337.914 695.019 337.713C767.286 337.511 772.736 337.309 773.342 333.877C773.948 330.647 767.084 330.445 649.195 330.445H524.443L506.679 337.309C489.319 344.172 485.685 344.374 492.751 337.713C498.605 332.666 507.083 314.498 509.707 301.781C512.13 290.678 511.12 280.989 506.275 261.61C505.064 256.967 505.67 256.159 511.524 254.948C521.415 252.93 546.245 240.212 549.071 235.569C551.291 232.339 551.089 231.33 548.061 229.715C543.015 227.091 503.651 221.842 478.014 220.429L455.809 219.218L464.691 223.255C488.108 234.358 504.055 256.361 506.477 281.392C508.9 304.607 496.182 332.06 475.592 347.806L467.114 354.265L484.07 355.678C504.055 357.293 517.176 355.88 528.279 350.43C532.72 348.411 536.555 346.595 536.959 346.595C537.968 346.595 535.95 371.828 534.335 382.325L533.325 388.582L518.185 381.719C500.825 373.644 478.418 367.387 459.443 365.57L446.12 364.157L447.533 377.48L449.148 391.005H436.834H424.52V377.884V364.762H417.455C400.499 364.762 350.033 379.498 340.343 387.371C338.526 388.784 337.517 388.582 336.911 386.766C335.296 381.315 333.682 346.191 335.296 346.998C351.849 355.678 366.182 357.899 389.598 355.678C404.94 354.265 405.141 354.064 400.297 351.036C390.204 344.576 375.467 327.821 370.219 316.517C365.778 307.029 364.97 302.386 364.97 288.054C364.97 273.722 365.778 269.079 370.219 259.793C379.505 239.808 394.443 226.687 415.033 220.429C422.906 217.805 421.089 217.603 393.231 217.805C376.679 217.805 353.868 218.814 342.765 219.622ZM354.272 342.355C364.567 345.585 376.275 349.017 380.11 350.228C386.368 352.247 385.359 352.449 371.834 351.843C360.126 351.439 353.666 350.026 344.178 345.383C337.517 342.355 332.47 338.924 332.874 338.116C334.287 335.896 333.278 335.694 354.272 342.355ZM528.279 344.576C518.993 349.219 512.331 350.834 500.018 351.641L484.07 352.852L505.266 345.787C516.974 341.952 529.692 338.722 533.527 338.722C540.391 338.52 540.189 338.722 528.279 344.576Z" fill="url(#paint6_linear_181_168)"/>
<path d="M418.465 245.663C392.222 254.545 380.312 281.797 389.396 312.48C394.846 331.052 414.023 358.707 421.291 358.707C425.732 358.707 425.53 358.101 417.657 347.201C399.691 321.564 393.635 291.486 402.921 273.722C409.582 261.408 419.676 255.756 436.43 255.756C452.176 255.756 460.654 260.399 468.123 273.117C472.968 281.393 473.372 283.614 472.564 296.735C471.353 314.095 465.499 330.244 454.8 346.191C446.322 358.707 447.533 362.542 457.021 353.459C477.813 333.676 489.319 299.359 483.061 276.548C479.024 262.821 465.095 249.095 450.965 244.856C437.036 240.818 432.191 240.818 418.465 245.663Z" fill="url(#paint7_linear_181_168)"/>
<path d="M98.5101 342.558C97.2989 344.374 100.327 387.573 102.749 402.511L103.759 409.173H151.6C183.293 409.173 198.433 408.365 196.414 407.154C194.799 406.145 191.57 405.136 189.349 405.136C182.486 405.136 163.914 395.244 157.253 388.381C153.821 384.747 146.958 380.71 141.911 379.095C132.221 376.269 114.659 360.725 116.072 356.486C116.88 354.064 135.249 348.815 161.088 343.769L175.219 340.943L137.47 340.741C114.659 340.539 99.3176 341.346 98.5101 342.558Z" fill="url(#paint8_linear_181_168)"/>
<path d="M187.935 345.586C169.969 351.036 138.882 356.688 126.972 356.688H119.1L123.944 361.937C130.606 369.204 138.479 372.837 146.755 372.837C159.876 372.837 219.628 357.496 236.787 349.825C256.367 340.943 255.964 340.741 228.712 340.741C208.526 340.943 200.451 341.952 187.935 345.586Z" fill="url(#paint9_linear_181_168)"/>
<path d="M254.147 345.989C243.045 353.055 202.47 370.213 182.283 376.269C154.83 384.344 155.839 383.536 167.144 390.198C175.218 394.84 179.659 396.052 189.551 396.052C204.69 396.052 220.638 388.381 261.818 361.331C277.362 351.036 290.281 342.961 290.685 343.365C292.905 345.586 215.591 400.896 209.939 401.3C202.47 401.704 217.61 404.934 227.905 404.934C244.054 405.136 251.725 400.291 284.629 367.993C298.759 354.064 310.669 343.163 311.073 343.567C312.284 344.576 281.197 378.489 264.24 394.437L248.899 409.173H315.514H382.129V400.896V392.62L356.492 393.226L330.654 394.033L328.433 367.791C327.02 353.256 326.011 341.346 325.809 341.145C325.607 341.145 311.275 340.943 293.914 340.943C263.231 340.741 261.818 340.943 254.147 345.989ZM320.561 357.092C313.495 370.819 296.942 396.859 292.703 400.493C288.868 403.924 288.868 403.521 293.309 396.052C296.135 391.611 303.402 379.903 309.862 369.809C316.321 359.918 321.57 350.834 321.57 349.825C321.57 348.815 322.175 348.412 322.781 349.017C323.387 349.825 322.377 353.256 320.561 357.092Z" fill="url(#paint10_linear_181_168)"/>
<path d="M542.611 363.552C540.592 397.263 543.62 394.033 513.744 394.033H488.108L487.502 401.502L486.896 409.173L554.117 408.971C617.906 408.971 621.136 408.769 616.292 405.539C609.024 400.695 581.773 372.03 568.248 355.275C558.155 342.356 555.934 340.741 550.484 340.943L544.024 341.346L542.611 363.552ZM566.027 378.691C579.35 400.291 582.782 407.76 575.313 399.483C570.872 394.639 547.658 354.266 547.86 351.642C547.86 350.632 548.667 351.036 549.878 352.651C550.887 354.266 558.155 365.974 566.027 378.691Z" fill="url(#paint11_linear_181_168)"/>
<path d="M567.844 350.632C581.772 367.184 614.878 397.464 623.356 401.299C631.835 405.337 650.406 406.144 657.673 403.116C659.894 402.107 660.701 401.299 659.288 401.299C655.251 400.896 614.07 372.837 593.48 356.486C577.129 343.364 572.486 340.538 566.632 340.538H559.365L567.844 350.632Z" fill="url(#paint12_linear_181_168)"/>
<path d="M580.966 342.355C583.388 346.393 640.112 382.93 654.646 389.793C672.208 398.272 682.705 399.079 696.028 392.821C709.957 386.16 711.168 383.536 700.671 380.911C684.118 376.874 651.618 364.157 626.991 352.449C605.795 342.355 600.546 340.539 590.857 340.539C584.397 340.539 580.158 341.346 580.966 342.355Z" fill="url(#paint13_linear_181_168)"/>
<path d="M614.273 341.346C614.273 345.182 660.702 361.129 691.587 367.791C722.675 374.452 728.731 374.25 739.026 366.781C743.668 363.35 747.504 359.918 747.504 359.111C747.504 358.303 738.622 356.486 727.923 355.275C717.022 353.862 699.46 350.43 688.963 347.402C673.622 342.961 664.336 341.75 642.131 341.145C626.789 340.539 614.273 340.741 614.273 341.346Z" fill="url(#paint14_linear_181_168)"/>
<path d="M700.065 341.952C735.997 350.026 748.916 353.054 751.136 353.862C753.155 354.468 753.155 355.881 750.733 360.523C746.494 368.8 736.602 376.269 726.711 379.297C722.068 380.508 713.993 385.555 708.745 390.197C702.285 395.85 694.614 400.089 684.521 403.319L669.785 408.163L717.021 408.769C743.062 408.971 764.46 408.971 764.863 408.769C765.671 407.962 771.727 352.045 771.727 345.585V340.539L733.978 340.741C712.984 340.943 697.844 341.346 700.065 341.952Z" fill="url(#paint15_linear_181_168)"/>
<path d="M399.49 400.695C398.884 401.704 402.518 405.136 407.766 408.164L416.85 414.018L415.639 438.443C414.024 467.512 409.987 500.416 403.123 542C400.297 558.956 398.279 573.692 398.682 574.702C399.692 577.73 433.201 607 435.623 607C436.633 606.798 445.515 599.329 455.002 590.245L472.565 573.692L466.711 542.403C461.26 512.931 456.617 472.558 453.993 432.993L452.782 415.431L462.27 408.971C470.546 403.319 471.152 402.31 467.72 400.897C462.471 398.878 400.701 398.676 399.49 400.695ZM426.54 432.186C426.54 457.015 422.906 504.655 418.465 538.366L414.63 567.636L424.117 576.115C429.164 580.96 434.009 584.795 434.614 584.795C435.22 584.593 439.863 580.758 445.313 575.913L454.801 567.233L452.984 553.304C447.533 514.546 441.679 424.515 444.102 418.055C446.928 410.586 448.745 417.046 448.745 434.81C448.745 456.005 452.176 490.121 459.04 539.779L463.481 570.463L449.754 583.18C442.285 590.245 435.422 595.897 434.614 595.897C433.807 595.897 427.145 590.245 419.676 583.382L406.151 571.068L408.17 558.149C413.418 525.043 418.667 479.825 420.887 448.94C423.31 413.21 426.54 403.723 426.54 432.186Z" fill="url(#paint16_linear_181_168)"/>
<defs>
<linearGradient id="paint0_linear_181_168" x1="179.054" y1="0.599731" x2="179.054" y2="314.297" gradientUnits="userSpaceOnUse">
<stop stop-color="#0D575B"/>
<stop offset="1" stop-color="#A9D6D8"/>
</linearGradient>
<linearGradient id="paint1_linear_181_168" x1="683.244" y1="1.40714" x2="683.244" y2="315.306" gradientUnits="userSpaceOnUse">
<stop stop-color="#0D575B"/>
<stop offset="1" stop-color="#A9D6D8"/>
</linearGradient>
<linearGradient id="paint2_linear_181_168" x1="118.967" y1="76.2851" x2="118.967" y2="175.01" gradientUnits="userSpaceOnUse">
<stop stop-color="#0D575B"/>
<stop offset="1" stop-color="#A9D6D8"/>
</linearGradient>
<linearGradient id="paint3_linear_181_168" x1="743.585" y1="78.1803" x2="743.585" y2="171.62" gradientUnits="userSpaceOnUse">
<stop stop-color="#0D575B"/>
<stop offset="1" stop-color="#A9D6D8"/>
</linearGradient>
<linearGradient id="paint4_linear_181_168" x1="125.658" y1="114.705" x2="125.658" y2="188.873" gradientUnits="userSpaceOnUse">
<stop stop-color="#0D575B"/>
<stop offset="1" stop-color="#A9D6D8"/>
</linearGradient>
<linearGradient id="paint5_linear_181_168" x1="140.961" y1="164.916" x2="140.961" y2="218.397" gradientUnits="userSpaceOnUse">
<stop stop-color="#0D575B"/>
<stop offset="1" stop-color="#A9D6D8"/>
</linearGradient>
<linearGradient id="paint6_linear_181_168" x1="434.614" y1="217.747" x2="434.614" y2="395.586" gradientUnits="userSpaceOnUse">
<stop stop-color="#0D575B"/>
<stop offset="1" stop-color="#A9D6D8"/>
</linearGradient>
<linearGradient id="paint7_linear_181_168" x1="435.57" y1="241.922" x2="435.57" y2="358.707" gradientUnits="userSpaceOnUse">
<stop stop-color="#0D575B"/>
<stop offset="1" stop-color="#A9D6D8"/>
</linearGradient>
<linearGradient id="paint8_linear_181_168" x1="147.413" y1="340.71" x2="147.413" y2="409.173" gradientUnits="userSpaceOnUse">
<stop stop-color="#0D575B"/>
<stop offset="1" stop-color="#A9D6D8"/>
</linearGradient>
<linearGradient id="paint9_linear_181_168" x1="184.778" y1="340.741" x2="184.778" y2="372.837" gradientUnits="userSpaceOnUse">
<stop stop-color="#0D575B"/>
<stop offset="1" stop-color="#A9D6D8"/>
</linearGradient>
<linearGradient id="paint10_linear_181_168" x1="270.905" y1="340.894" x2="270.905" y2="409.173" gradientUnits="userSpaceOnUse">
<stop stop-color="#0D575B"/>
<stop offset="1" stop-color="#A9D6D8"/>
</linearGradient>
<linearGradient id="paint11_linear_181_168" x1="552.358" y1="340.927" x2="552.358" y2="409.173" gradientUnits="userSpaceOnUse">
<stop stop-color="#0D575B"/>
<stop offset="1" stop-color="#A9D6D8"/>
</linearGradient>
<linearGradient id="paint12_linear_181_168" x1="609.678" y1="340.538" x2="609.678" y2="404.948" gradientUnits="userSpaceOnUse">
<stop stop-color="#0D575B"/>
<stop offset="1" stop-color="#A9D6D8"/>
</linearGradient>
<linearGradient id="paint13_linear_181_168" x1="644.254" y1="340.539" x2="644.254" y2="396.927" gradientUnits="userSpaceOnUse">
<stop stop-color="#0D575B"/>
<stop offset="1" stop-color="#A9D6D8"/>
</linearGradient>
<linearGradient id="paint14_linear_181_168" x1="680.889" y1="340.779" x2="680.889" y2="372.595" gradientUnits="userSpaceOnUse">
<stop stop-color="#0D575B"/>
<stop offset="1" stop-color="#A9D6D8"/>
</linearGradient>
<linearGradient id="paint15_linear_181_168" x1="720.756" y1="340.539" x2="720.756" y2="408.92" gradientUnits="userSpaceOnUse">
<stop stop-color="#0D575B"/>
<stop offset="1" stop-color="#A9D6D8"/>
</linearGradient>
<linearGradient id="paint16_linear_181_168" x1="435.598" y1="399.278" x2="435.598" y2="607" gradientUnits="userSpaceOnUse">
<stop stop-color="#0D575B"/>
<stop offset="1" stop-color="#A9D6D8"/>
</linearGradient>
</defs>
</svg>
