<svg width="30" height="31" viewBox="0 0 30 31" fill="none" xmlns="http://www.w3.org/2000/svg">
<path d="M22.8082 20.5071C21.8281 19.5072 20.6045 19.5072 19.6306 20.5071C18.8877 21.2683 18.1448 22.0295 17.4144 22.8036C17.2146 23.0165 17.046 23.0616 16.8026 22.9197C16.3219 22.6488 15.81 22.4294 15.348 22.1327C13.1942 20.7329 11.39 18.9331 9.79183 16.9076C8.99899 15.9012 8.29354 14.8239 7.80036 13.6112C7.70047 13.3661 7.7192 13.2048 7.91273 13.0048C8.65563 12.263 9.3798 11.5018 10.1102 10.7406C11.1278 9.68266 11.1278 8.4441 10.104 7.37972C9.52339 6.77334 8.9428 6.17987 8.36222 5.5735C7.7629 4.95422 7.16983 4.32849 6.56427 3.71566C5.58414 2.72869 4.36054 2.72869 3.38665 3.72211C2.6375 4.48331 1.91957 5.26386 1.15794 6.01215C0.4525 6.70239 0.096656 7.54744 0.0217416 8.53441C-0.0968729 10.1407 0.283942 11.6566 0.820829 13.1338C1.91957 16.1915 3.59266 18.9073 5.6216 21.3973C8.36222 24.7646 11.6335 27.4288 15.4604 29.3512C17.1834 30.2156 18.9689 30.88 20.9104 30.9897C22.2464 31.0671 23.4075 30.7187 24.3377 29.6414C24.9745 28.9061 25.6924 28.2352 26.3667 27.532C27.3655 26.487 27.3718 25.2226 26.3791 24.1905C25.193 22.9584 24.0006 21.7328 22.8082 20.5071ZM21.6158 15.3658L23.9194 14.9594C23.5574 12.7726 22.5585 10.7922 21.0415 9.2182C19.4371 7.56034 17.4081 6.51531 15.1732 6.19277L14.8486 8.58602C16.5778 8.8376 18.151 9.64395 19.3934 10.9277C20.567 12.1404 21.3349 13.6757 21.6158 15.3658ZM25.218 5.01873C22.5585 2.27068 19.1936 0.535417 15.4791 0L15.1545 2.39325C18.3633 2.85771 21.2725 4.36074 23.5698 6.72819C25.7486 8.97952 27.1782 11.8243 27.6964 14.953L30 14.5466C29.3944 10.9212 27.7401 7.6313 25.218 5.01873Z" fill="black"/>
<path d="M22.8082 20.5071C21.8281 19.5072 20.6045 19.5072 19.6306 20.5071C18.8877 21.2683 18.1448 22.0295 17.4144 22.8036C17.2146 23.0165 17.046 23.0616 16.8026 22.9197C16.3219 22.6488 15.81 22.4294 15.348 22.1327C13.1942 20.7329 11.39 18.9331 9.79183 16.9076C8.99899 15.9012 8.29354 14.8239 7.80036 13.6112C7.70047 13.3661 7.7192 13.2048 7.91273 13.0048C8.65563 12.263 9.3798 11.5018 10.1102 10.7406C11.1278 9.68266 11.1278 8.4441 10.104 7.37972C9.52339 6.77334 8.9428 6.17987 8.36222 5.5735C7.7629 4.95422 7.16983 4.32849 6.56427 3.71566C5.58414 2.72869 4.36054 2.72869 3.38665 3.72211C2.6375 4.48331 1.91957 5.26386 1.15794 6.01215C0.4525 6.70239 0.096656 7.54744 0.0217416 8.53441C-0.0968729 10.1407 0.283942 11.6566 0.820829 13.1338C1.91957 16.1915 3.59266 18.9073 5.6216 21.3973C8.36222 24.7646 11.6335 27.4288 15.4604 29.3512C17.1834 30.2156 18.9689 30.88 20.9104 30.9897C22.2464 31.0671 23.4075 30.7187 24.3377 29.6414C24.9745 28.9061 25.6924 28.2352 26.3667 27.532C27.3655 26.487 27.3718 25.2226 26.3791 24.1905C25.193 22.9584 24.0006 21.7328 22.8082 20.5071ZM21.6158 15.3658L23.9194 14.9594C23.5574 12.7726 22.5585 10.7922 21.0415 9.2182C19.4371 7.56034 17.4081 6.51531 15.1732 6.19277L14.8486 8.58602C16.5778 8.8376 18.151 9.64395 19.3934 10.9277C20.567 12.1404 21.3349 13.6757 21.6158 15.3658ZM25.218 5.01873C22.5585 2.27068 19.1936 0.535417 15.4791 0L15.1545 2.39325C18.3633 2.85771 21.2725 4.36074 23.5698 6.72819C25.7486 8.97952 27.1782 11.8243 27.6964 14.953L30 14.5466C29.3944 10.9212 27.7401 7.6313 25.218 5.01873Z" fill="url(#paint0_linear_84_23)"/>
<defs>
<linearGradient id="paint0_linear_84_23" x1="15" y1="0" x2="15" y2="31" gradientUnits="userSpaceOnUse">
<stop stop-color="#59ABAF"/>
<stop offset="1" stop-color="#10595C"/>
</linearGradient>
</defs>
</svg>
