<svg width="30" height="31" viewBox="0 0 30 31" fill="none" xmlns="http://www.w3.org/2000/svg">
<path d="M11.7715 19.5808L11.2752 26.5608C11.9852 26.5608 12.2927 26.2558 12.6615 25.8895L15.9902 22.7083L22.8877 27.7595C24.1527 28.4645 25.044 28.0933 25.3852 26.5958L29.9127 5.38076L29.914 5.37951C30.3152 3.50951 29.2377 2.77826 28.0052 3.23701L1.39272 13.4258C-0.423528 14.1308 -0.396028 15.1433 1.08397 15.602L7.88772 17.7183L23.6915 7.82951C24.4352 7.33701 25.1115 7.60951 24.5552 8.10201L11.7715 19.5808Z" fill="black"/>
<path d="M11.7715 19.5808L11.2752 26.5608C11.9852 26.5608 12.2927 26.2558 12.6615 25.8895L15.9902 22.7083L22.8877 27.7595C24.1527 28.4645 25.044 28.0933 25.3852 26.5958L29.9127 5.38076L29.914 5.37951C30.3152 3.50951 29.2377 2.77826 28.0052 3.23701L1.39272 13.4258C-0.423528 14.1308 -0.396028 15.1433 1.08397 15.602L7.88772 17.7183L23.6915 7.82951C24.4352 7.33701 25.1115 7.60951 24.5552 8.10201L11.7715 19.5808Z" fill="url(#paint0_linear_645_317)"/>
<defs>
<linearGradient id="paint0_linear_645_317" x1="14.9996" y1="3.104" x2="14.9996" y2="28.1041" gradientUnits="userSpaceOnUse">
<stop stop-color="#59ABAF"/>
<stop offset="1" stop-color="#10595C"/>
</linearGradient>
</defs>
</svg>
