<svg width="30" height="30" viewBox="0 0 30 30" fill="none" xmlns="http://www.w3.org/2000/svg">
<path d="M9.0625 8.75C9.0625 5.47625 11.7263 2.8125 15 2.8125C18.2737 2.8125 20.9375 5.47625 20.9375 8.75C20.9375 12.0237 18.2737 14.6875 15 14.6875C11.7263 14.6875 9.0625 12.0237 9.0625 8.75ZM18.75 16.5625H11.25C7.2875 16.5625 4.0625 19.7875 4.0625 23.75C4.06316 24.6615 4.42554 25.5354 5.07005 26.1799C5.71456 26.8245 6.58852 27.1868 7.5 27.1875H22.5C23.4115 27.1868 24.2854 26.8245 24.9299 26.1799C25.5745 25.5354 25.9368 24.6615 25.9375 23.75C25.9375 19.7875 22.7125 16.5625 18.75 16.5625Z" fill="white"/>
</svg>
