<svg width="141" height="140" viewBox="0 0 141 140" fill="none" xmlns="http://www.w3.org/2000/svg">
<g clip-path="url(#clip0_94_127)">
<path d="M123 8.7583C125.321 8.7583 127.546 9.68017 129.187 11.3211C130.828 12.9621 131.75 15.1877 131.75 17.5083V87.5083C131.75 89.829 130.828 92.0546 129.187 93.6955C127.546 95.3364 125.321 96.2583 123 96.2583H39.1225C34.4816 96.2593 30.0311 98.1037 26.75 101.386L9.25 118.886V17.5083C9.25 15.1877 10.1719 12.9621 11.8128 11.3211C13.4538 9.68017 15.6794 8.7583 18 8.7583H123ZM18 0.00830078C13.3587 0.00830078 8.90752 1.85205 5.62563 5.13393C2.34374 8.41582 0.5 12.867 0.5 17.5083L0.5 129.447C0.500184 130.313 0.757185 131.159 1.23848 131.878C1.71977 132.598 2.40371 133.159 3.20374 133.489C4.00378 133.82 4.88393 133.906 5.73282 133.736C6.5817 133.566 7.36114 133.149 7.9725 132.536L32.9362 107.572C34.5768 105.931 36.802 105.009 39.1225 105.008H123C127.641 105.008 132.092 103.165 135.374 99.8827C138.656 96.6008 140.5 92.1496 140.5 87.5083V17.5083C140.5 12.867 138.656 8.41582 135.374 5.13393C132.092 1.85205 127.641 0.00830078 123 0.00830078L18 0.00830078Z" fill="url(#paint0_linear_94_127)"/>
<path d="M26.75 30.625C26.75 29.4647 27.2109 28.3519 28.0314 27.5314C28.8519 26.7109 29.9647 26.25 31.125 26.25H109.875C111.035 26.25 112.148 26.7109 112.969 27.5314C113.789 28.3519 114.25 29.4647 114.25 30.625C114.25 31.7853 113.789 32.8981 112.969 33.7186C112.148 34.5391 111.035 35 109.875 35H31.125C29.9647 35 28.8519 34.5391 28.0314 33.7186C27.2109 32.8981 26.75 31.7853 26.75 30.625ZM26.75 52.5C26.75 51.3397 27.2109 50.2269 28.0314 49.4064C28.8519 48.5859 29.9647 48.125 31.125 48.125H109.875C111.035 48.125 112.148 48.5859 112.969 49.4064C113.789 50.2269 114.25 51.3397 114.25 52.5C114.25 53.6603 113.789 54.7731 112.969 55.5936C112.148 56.4141 111.035 56.875 109.875 56.875H31.125C29.9647 56.875 28.8519 56.4141 28.0314 55.5936C27.2109 54.7731 26.75 53.6603 26.75 52.5ZM26.75 74.375C26.75 73.2147 27.2109 72.1019 28.0314 71.2814C28.8519 70.4609 29.9647 70 31.125 70H74.875C76.0353 70 77.1481 70.4609 77.9686 71.2814C78.7891 72.1019 79.25 73.2147 79.25 74.375C79.25 75.5353 78.7891 76.6481 77.9686 77.4686C77.1481 78.2891 76.0353 78.75 74.875 78.75H31.125C29.9647 78.75 28.8519 78.2891 28.0314 77.4686C27.2109 76.6481 26.75 75.5353 26.75 74.375Z" fill="url(#paint1_linear_94_127)"/>
</g>
<defs>
<linearGradient id="paint0_linear_94_127" x1="70.5" y1="0.00830078" x2="70.5" y2="133.821" gradientUnits="userSpaceOnUse">
<stop stop-color="#155D61"/>
<stop offset="1" stop-color="#D8EDEE"/>
</linearGradient>
<linearGradient id="paint1_linear_94_127" x1="70.5" y1="26.25" x2="70.5" y2="78.75" gradientUnits="userSpaceOnUse">
<stop stop-color="#155D61"/>
<stop offset="1" stop-color="#D8EDEE"/>
</linearGradient>
<clipPath id="clip0_94_127">
<rect width="140" height="140" fill="white" transform="translate(0.5)"/>
</clipPath>
</defs>
</svg>
