<svg width="141" height="140" viewBox="0 0 141 140" fill="none" xmlns="http://www.w3.org/2000/svg">
<g clip-path="url(#clip0_94_119)">
<path d="M140.5 70C140.5 70 114.25 21.875 70.5 21.875C26.75 21.875 0.5 70 0.5 70C0.5 70 26.75 118.125 70.5 118.125C114.25 118.125 140.5 70 140.5 70ZM10.7638 70C14.9881 63.5651 19.8547 57.5757 25.2887 52.1237C36.55 40.845 51.95 30.625 70.5 30.625C89.05 30.625 104.441 40.845 115.72 52.1237C121.154 57.5757 126.021 63.5651 130.245 70C129.743 70.7583 129.175 71.5983 128.539 72.52C125.608 76.72 121.276 82.32 115.72 87.8763C104.441 99.155 89.0413 109.375 70.5 109.375C51.9588 109.375 36.5588 99.155 25.28 87.8763C19.846 82.4243 14.9881 76.4349 10.7638 70Z" fill="url(#paint0_linear_94_119)"/>
<path d="M70.5 48.125C64.6984 48.125 59.1344 50.4297 55.032 54.532C50.9297 58.6344 48.625 64.1984 48.625 70C48.625 75.8016 50.9297 81.3656 55.032 85.468C59.1344 89.5703 64.6984 91.875 70.5 91.875C76.3016 91.875 81.8656 89.5703 85.968 85.468C90.0703 81.3656 92.375 75.8016 92.375 70C92.375 64.1984 90.0703 58.6344 85.968 54.532C81.8656 50.4297 76.3016 48.125 70.5 48.125ZM39.875 70C39.875 61.8777 43.1016 54.0882 48.8449 48.3449C54.5882 42.6016 62.3777 39.375 70.5 39.375C78.6223 39.375 86.4118 42.6016 92.1551 48.3449C97.8984 54.0882 101.125 61.8777 101.125 70C101.125 78.1223 97.8984 85.9118 92.1551 91.6551C86.4118 97.3984 78.6223 100.625 70.5 100.625C62.3777 100.625 54.5882 97.3984 48.8449 91.6551C43.1016 85.9118 39.875 78.1223 39.875 70Z" fill="url(#paint1_linear_94_119)"/>
</g>
<defs>
<linearGradient id="paint0_linear_94_119" x1="70.5" y1="21.875" x2="70.5" y2="118.125" gradientUnits="userSpaceOnUse">
<stop stop-color="#D8EDEE"/>
<stop offset="1" stop-color="#155D61"/>
</linearGradient>
<linearGradient id="paint1_linear_94_119" x1="70.5" y1="39.375" x2="70.5" y2="100.625" gradientUnits="userSpaceOnUse">
<stop stop-color="#D8EDEE"/>
<stop offset="1" stop-color="#155D61"/>
</linearGradient>
<clipPath id="clip0_94_119">
<rect width="140" height="140" fill="white" transform="translate(0.5)"/>
</clipPath>
</defs>
</svg>
