<svg width="141" height="140" viewBox="0 0 141 140" fill="none" xmlns="http://www.w3.org/2000/svg">
<g clip-path="url(#clip0_94_124)">
<path d="M0.5 70C0.5 51.4348 7.87498 33.6301 21.0025 20.5025C34.1301 7.37498 51.9348 0 70.5 0C89.0652 0 106.87 7.37498 119.997 20.5025C133.125 33.6301 140.5 51.4348 140.5 70C140.5 88.5652 133.125 106.37 119.997 119.497C106.87 132.625 89.0652 140 70.5 140C51.9348 140 34.1301 132.625 21.0025 119.497C7.87498 106.37 0.5 88.5652 0.5 70ZM66.125 9.42375C60.2625 11.2087 54.4437 16.5987 49.6138 25.655C48.3596 28.0058 47.2075 30.5492 46.1575 33.285C52.3262 34.6587 59.0375 35.5338 66.125 35.7962V9.42375ZM37.6787 30.9662C38.9271 27.6004 40.33 24.4562 41.8875 21.5338C43.4104 18.6788 45.1571 15.949 47.1113 13.37C39.661 16.455 32.8932 20.9807 27.1963 26.6875C30.3696 28.3033 33.8638 29.7238 37.6787 30.9662ZM31.2038 65.625C31.5188 56.2625 32.8488 47.3638 35.0187 39.305C30.2801 37.7963 25.6951 35.8422 21.325 33.4688C14.3543 42.8246 10.2177 53.986 9.4075 65.625H31.2038ZM43.4538 41.6412C41.3877 49.4785 40.2136 57.5241 39.9537 65.625H66.125V44.5462C58.1625 44.2838 50.5238 43.2775 43.4538 41.6412ZM74.875 44.5375V65.625H101.037C100.78 57.5245 99.6093 49.4789 97.5462 41.6412C90.4762 43.2775 82.8375 44.2663 74.875 44.5375ZM39.9625 74.375C40.2688 83.0113 41.5025 91.1225 43.4538 98.3587C50.9004 96.6682 58.4925 95.6983 66.125 95.4625V74.375H39.9625ZM74.875 74.375V95.4538C82.8375 95.7163 90.4762 96.7225 97.5462 98.3587C99.4975 91.1225 100.731 83.0113 101.046 74.375H74.875ZM46.1575 106.715C47.2075 109.451 48.3596 111.994 49.6138 114.345C54.4437 123.401 60.2712 128.783 66.125 130.576V104.213C59.0375 104.475 52.3262 105.341 46.1575 106.715ZM47.12 126.63C45.1628 124.051 43.4132 121.322 41.8875 118.466C40.2793 115.415 38.8734 112.261 37.6787 109.025C34.0795 110.182 30.5749 111.616 27.1963 113.312C32.8932 119.019 39.6697 123.545 47.12 126.63ZM35.0187 100.695C32.75 92.0951 31.4672 83.265 31.195 74.375H9.4075C10.2177 86.014 14.3543 97.1754 21.325 106.531C25.4375 104.274 30.0312 102.314 35.0187 100.695ZM93.8888 126.63C101.335 123.547 108.1 119.024 113.795 113.321C110.419 111.625 106.918 110.192 103.321 109.034C102.126 112.267 100.72 115.418 99.1125 118.466C97.5896 121.321 95.8429 124.051 93.8888 126.63ZM74.875 104.204V130.576C80.7375 128.791 86.5563 123.401 91.3863 114.345C92.6462 111.994 93.7983 109.451 94.8425 106.715C88.2769 105.274 81.5932 104.427 74.875 104.204ZM105.981 100.695C110.969 102.314 115.562 104.274 119.675 106.531C126.646 97.1754 130.782 86.014 131.592 74.375H109.805C109.533 83.265 108.25 92.0951 105.981 100.695ZM131.592 65.625C130.782 53.986 126.646 42.8246 119.675 33.4688C115.562 35.7262 110.969 37.6863 105.981 39.305C108.151 47.355 109.481 56.2625 109.805 65.625H131.592ZM99.1125 21.5338C100.664 24.4621 102.07 27.6063 103.33 30.9662C106.923 29.808 110.422 28.3746 113.795 26.6788C108.099 20.9792 101.334 16.4595 93.8888 13.3788C95.7962 15.855 97.5463 18.6025 99.1125 21.5338ZM94.8425 33.285C93.8438 30.675 92.6896 28.1271 91.3863 25.655C86.5563 16.5987 80.7375 11.2175 74.875 9.42375V35.7875C81.9625 35.525 88.6737 34.6587 94.8425 33.285Z" fill="url(#paint0_linear_94_124)"/>
</g>
<defs>
<linearGradient id="paint0_linear_94_124" x1="70.5" y1="0" x2="70.5" y2="140" gradientUnits="userSpaceOnUse">
<stop stop-color="#155D61"/>
<stop offset="1" stop-color="#D8EDEE"/>
</linearGradient>
<clipPath id="clip0_94_124">
<rect width="140" height="140" fill="white" transform="translate(0.5)"/>
</clipPath>
</defs>
</svg>
