<svg width="141" height="140" viewBox="0 0 141 140" fill="none" xmlns="http://www.w3.org/2000/svg">
<g clip-path="url(#clip0_94_116)">
<path fill-rule="evenodd" clip-rule="evenodd" d="M0.5 30.625C0.5 29.4647 0.960936 28.3519 1.78141 27.5314C2.60188 26.7109 3.71468 26.25 4.875 26.25H9.25C28.5175 26.25 42.7363 37.1 51.8975 47.4075C56.185 52.2375 59.4663 57.05 61.75 60.8125C64.025 57.05 67.315 52.2375 71.6025 47.4075C80.7638 37.1 94.9825 26.25 114.25 26.25V35C98.5175 35 86.4862 43.8375 78.1475 53.2175C73.637 58.3233 69.7644 63.9589 66.615 70C69.7616 76.0407 73.6313 81.6762 78.1387 86.7825C86.495 96.1625 98.535 105 114.25 105V113.75C94.9825 113.75 80.7638 102.9 71.6025 92.5925C67.9234 88.4283 64.626 83.9419 61.75 79.1875C59.475 82.95 56.185 87.7625 51.8975 92.5925C42.7363 102.9 28.5175 113.75 9.25 113.75H4.875C3.71468 113.75 2.60188 113.289 1.78141 112.469C0.960936 111.648 0.5 110.535 0.5 109.375C0.5 108.215 0.960936 107.102 1.78141 106.281C2.60188 105.461 3.71468 105 4.875 105H9.25C24.9825 105 37.0137 96.1625 45.3525 86.7825C49.863 81.6767 53.7356 76.0411 56.885 70C53.7384 63.9593 49.8687 58.3238 45.3612 53.2175C37.005 43.8375 24.965 35 9.25 35H4.875C3.71468 35 2.60188 34.5391 1.78141 33.7186C0.960936 32.8981 0.5 31.7853 0.5 30.625Z" fill="url(#paint0_linear_94_116)"/>
<path d="M114.25 47.8275V13.4225C114.25 13.0069 114.369 12.5999 114.592 12.2492C114.815 11.8985 115.133 11.6186 115.51 11.4423C115.886 11.266 116.305 11.2006 116.717 11.2538C117.13 11.307 117.518 11.4765 117.837 11.7425L138.488 28.945C139.538 29.82 139.538 31.43 138.488 32.305L117.837 49.5075C117.518 49.7735 117.13 49.9431 116.717 49.9962C116.305 50.0494 115.886 49.984 115.51 49.8077C115.133 49.6315 114.815 49.3516 114.592 49.0009C114.369 48.6502 114.25 48.2432 114.25 47.8275ZM114.25 126.577V92.1725C114.25 91.7569 114.369 91.3498 114.592 90.9991C114.815 90.6484 115.133 90.3686 115.51 90.1923C115.886 90.016 116.305 89.9506 116.717 90.0038C117.13 90.057 117.518 90.2265 117.837 90.4925L138.488 107.695C139.538 108.57 139.538 110.18 138.488 111.055L117.837 128.258C117.518 128.524 117.13 128.693 116.717 128.746C116.305 128.799 115.886 128.734 115.51 128.558C115.133 128.381 114.815 128.102 114.592 127.751C114.369 127.4 114.25 126.993 114.25 126.577Z" fill="url(#paint1_linear_94_116)"/>
</g>
<defs>
<linearGradient id="paint0_linear_94_116" x1="57.375" y1="26.25" x2="57.375" y2="113.75" gradientUnits="userSpaceOnUse">
<stop stop-color="#155D61"/>
<stop offset="1" stop-color="#D8EDEE"/>
</linearGradient>
<linearGradient id="paint1_linear_94_116" x1="126.763" y1="11.2358" x2="126.763" y2="128.764" gradientUnits="userSpaceOnUse">
<stop stop-color="#155D61"/>
<stop offset="1" stop-color="#D8EDEE"/>
</linearGradient>
<clipPath id="clip0_94_116">
<rect width="140" height="140" fill="white" transform="translate(0.5)"/>
</clipPath>
</defs>
</svg>
