<svg width="185" height="140" viewBox="0 0 185 140" fill="none" xmlns="http://www.w3.org/2000/svg">
<path d="M173 140C173 140 184.5 140 184.5 128.333C184.5 116.667 173 81.6667 127 81.6667C81 81.6667 69.5 116.667 69.5 128.333C69.5 140 81 140 81 140H173ZM81.253 128.333L81 128.287C81.0115 125.207 82.9205 116.27 89.74 108.22C96.088 100.672 107.243 93.3333 127 93.3333C146.745 93.3333 157.9 100.683 164.26 108.22C171.079 116.27 172.977 125.218 173 128.287L172.908 128.31L172.747 128.333H81.253ZM127 58.3333C133.1 58.3333 138.95 55.875 143.263 51.4992C147.577 47.1233 150 41.1884 150 35C150 28.8116 147.577 22.8767 143.263 18.5008C138.95 14.125 133.1 11.6667 127 11.6667C120.9 11.6667 115.05 14.125 110.737 18.5008C106.423 22.8767 104 28.8116 104 35C104 41.1884 106.423 47.1233 110.737 51.4992C115.05 55.875 120.9 58.3333 127 58.3333ZM161.5 35C161.5 39.5963 160.608 44.1475 158.874 48.3939C157.14 52.6403 154.599 56.4987 151.395 59.7487C148.192 62.9988 144.388 65.5769 140.203 67.3358C136.017 69.0947 131.531 70 127 70C122.469 70 117.983 69.0947 113.797 67.3358C109.612 65.5769 105.808 62.9988 102.605 59.7487C99.4012 56.4987 96.8599 52.6403 95.1262 48.3939C93.3924 44.1475 92.5 39.5963 92.5 35C92.5 25.7174 96.1348 16.815 102.605 10.2513C109.075 3.68749 117.85 0 127 0C136.15 0 144.925 3.68749 151.395 10.2513C157.865 16.815 161.5 25.7174 161.5 35ZM80.264 84.9333C75.6612 83.474 70.9203 82.5081 66.119 82.0517C63.4208 81.7847 60.711 81.6562 58 81.6667C12 81.6667 0.5 116.667 0.5 128.333C0.5 136.111 4.33333 140 12 140H60.484C58.78 136.358 57.9298 132.365 58 128.333C58 116.55 62.3355 104.51 70.535 94.4533C73.3295 91.0233 76.584 87.815 80.264 84.9333ZM57.08 93.3333C50.278 103.71 46.6017 115.872 46.5 128.333H12C12 125.3 13.886 116.317 20.74 108.22C27.0075 100.8 37.898 93.5667 57.08 93.345V93.3333ZM17.75 40.8333C17.75 31.5508 21.3848 22.6484 27.8548 16.0846C34.3248 9.52082 43.1 5.83333 52.25 5.83333C61.4 5.83333 70.1752 9.52082 76.6452 16.0846C83.1152 22.6484 86.75 31.5508 86.75 40.8333C86.75 50.1159 83.1152 59.0183 76.6452 65.5821C70.1752 72.1458 61.4 75.8333 52.25 75.8333C43.1 75.8333 34.3248 72.1458 27.8548 65.5821C21.3848 59.0183 17.75 50.1159 17.75 40.8333ZM52.25 17.5C46.15 17.5 40.2999 19.9583 35.9865 24.3342C31.6732 28.71 29.25 34.645 29.25 40.8333C29.25 47.0217 31.6732 52.9566 35.9865 57.3325C40.2999 61.7083 46.15 64.1667 52.25 64.1667C58.35 64.1667 64.2001 61.7083 68.5135 57.3325C72.8268 52.9566 75.25 47.0217 75.25 40.8333C75.25 34.645 72.8268 28.71 68.5135 24.3342C64.2001 19.9583 58.35 17.5 52.25 17.5Z" fill="url(#paint0_linear_94_126)"/>
<defs>
<linearGradient id="paint0_linear_94_126" x1="92.5" y1="0" x2="92.5" y2="140" gradientUnits="userSpaceOnUse">
<stop stop-color="#155D61"/>
<stop offset="1" stop-color="#D8EDEE"/>
</linearGradient>
</defs>
</svg>
