<svg width="141" height="140" viewBox="0 0 141 140" fill="none" xmlns="http://www.w3.org/2000/svg">
<g clip-path="url(#clip0_94_122)">
<path d="M9.25 24.745C16.9937 21.5075 28.0975 18.0162 38.895 16.9312C50.5325 15.7587 60.4025 17.4825 66.125 23.5112V108.789C57.9437 104.151 47.575 103.512 38.0113 104.475C27.6863 105.525 17.2738 108.509 9.25 111.571V24.745ZM74.875 23.5112C80.5975 17.4825 90.4675 15.7587 102.105 16.9312C112.903 18.0162 124.006 21.5075 131.75 24.745V111.571C123.717 108.509 113.314 105.516 102.989 104.484C93.4163 103.512 83.0563 104.142 74.875 108.789V23.5112ZM70.5 15.6012C61.8812 8.18999 49.3862 7.08749 38.0113 8.22499C24.7638 9.56374 11.3938 14.105 3.06375 17.8937C2.29943 18.2414 1.65128 18.8016 1.19668 19.5075C0.742084 20.2135 0.500232 21.0353 0.5 21.875L0.5 118.125C0.500203 118.857 0.684075 119.577 1.03477 120.22C1.38547 120.862 1.89179 121.407 2.50734 121.803C3.1229 122.199 3.82801 122.434 4.5581 122.487C5.28819 122.54 6.01992 122.409 6.68625 122.106C14.4038 118.606 26.8375 114.397 38.8862 113.181C51.215 111.939 61.5488 113.942 67.0875 120.855C67.4974 121.366 68.0169 121.778 68.6075 122.062C69.1982 122.345 69.8449 122.492 70.5 122.492C71.1551 122.492 71.8018 122.345 72.3925 122.062C72.9831 121.778 73.5026 121.366 73.9125 120.855C79.4513 113.942 89.785 111.939 102.105 113.181C114.163 114.397 126.605 118.606 134.314 122.106C134.98 122.409 135.712 122.54 136.442 122.487C137.172 122.434 137.877 122.199 138.493 121.803C139.108 121.407 139.615 120.862 139.965 120.22C140.316 119.577 140.5 118.857 140.5 118.125V21.875C140.5 21.0353 140.258 20.2135 139.803 19.5075C139.349 18.8016 138.701 18.2414 137.936 17.8937C129.606 14.105 116.236 9.56374 102.989 8.22499C91.6138 7.07874 79.1188 8.18999 70.5 15.6012Z" fill="url(#paint0_linear_94_122)"/>
</g>
<defs>
<linearGradient id="paint0_linear_94_122" x1="70.5" y1="7.83887" x2="70.5" y2="122.499" gradientUnits="userSpaceOnUse">
<stop stop-color="#155D61"/>
<stop offset="1" stop-color="#D8EDEE"/>
</linearGradient>
<clipPath id="clip0_94_122">
<rect width="140" height="140" fill="white" transform="translate(0.5)"/>
</clipPath>
</defs>
</svg>
